<?xml version="1.0" encoding="UTF-8"?>
<svg id="Layer_1" xmlns="http://www.w3.org/2000/svg" version="1.1" viewBox="0 0 213.51 262.5">
  <!-- Generator: Adobe Illustrator 29.4.0, SVG Export Plug-In . SVG Version: 2.1.0 Build 152)  -->
  <defs>
    <style>
      .st0 {
        fill: #ff3131;
      }

      .st1, .st2 {
        fill: #064cad;
      }

      .st3 {
        fill: #545454;
      }

      .st4 {
        fill: #f5f5f5;
      }

      .st2 {
        font-family: MyriadPro-Regular, 'Myriad Pro';
        font-size: 55.76px;
      }
    </style>
  </defs>
  <path class="st1" d="M27.11,0C12.17,0,0,12.17,0,27.12v208.26c0,14.94,12.17,27.12,27.11,27.12h159.25c14.94,0,27.11-12.17,27.11-27.12V64.13s.43-5.01-1.75-9.89c-2.04-4.57-5.37-7.76-5.37-7.76,0-.01-.02-.02-.02-.03L166.82,7.69s-.04-.04-.07-.07c0,0-3.37-3.21-8.37-5.36C152.49-.26,146.42,0,146.42,0h.09S27.11,0,27.11,0Z"/>
  <path class="st4" d="M27.11,8.91h119.4s.06,0,.09,0c0,0,4.77.05,8.27,1.54,3.36,1.44,5.74,3.63,5.76,3.64,0,0,.02.02.02.02l39.41,38.66s2.37,2.51,3.53,5.09c.93,2.08.99,5.89.99,5.89,0,.06,0,.13,0,.19v171.44c0,10.16-8.04,18.21-18.2,18.21H27.11c-10.16,0-18.2-8.05-18.2-18.21V27.12c0-10.17,8.04-18.21,18.2-18.21h0Z"/>
  <text class="st2" transform="translate(59.76 223.74) scale(1.03 1)"><tspan x="0" y="0">PCB</tspan></text>
  <g>
    <g>
      <path d="M106.75,126.92l9.7,9.7-20.97,20.97c-4.92,4.92-12.88,4.92-17.8,0l-44.36-44.28c-4.93-4.92-4.93-12.9,0-17.82l44.33-44.33c4.92-4.92,12.89-4.92,17.81,0l8.1,8.1-9.68,9.68-7.21-7.21-42.59,42.59,42.64,42.64,20.04-20.04Z"/>
      <path class="st3" d="M106.76,81.83l-9.7-9.7,20.97-20.97c4.92-4.92,12.88-4.92,17.8,0l44.36,44.28c4.93,4.92,4.93,12.9,0,17.82l-44.33,44.33c-4.92,4.92-12.89,4.92-17.81,0l-8.1-8.1,9.68-9.68,7.21,7.21,42.59-42.59-42.64-42.64-20.04,20.04Z"/>
    </g>
    <polygon class="st0" points="147.33 85.51 129.58 114.84 113.32 85.51 147.33 85.51"/>
    <polygon class="st1" points="103.31 85.51 124.36 123.47 117.93 134.09 106.76 114.06 94.89 133.67 68.19 85.51 80.87 85.57 97.17 114.92 102.48 106.06 91 85.51 103.31 85.51"/>
  </g>
</svg>