<?xml version="1.0" encoding="UTF-8"?>
<svg id="Layer_1" xmlns="http://www.w3.org/2000/svg" version="1.1" viewBox="0 0 864 864">
  <!-- Generator: Adobe Illustrator 29.4.0, SVG Export Plug-In . SVG Version: 2.1.0 Build 152)  -->
  <defs>
    <style>
      .st0 {
        fill: #ff3131;
      }

      .st1 {
        fill: #064cad;
      }

      .st2 {
        fill: #545454;
      }
    </style>
  </defs>
  <g>
    <path d="M431.96,552.28l51.74,51.74-111.9,111.9c-26.23,26.23-68.75,26.24-95,.04L40.11,479.68c-26.29-26.24-26.3-68.81-.04-95.08l236.54-236.54c26.24-26.24,68.79-26.24,95.03,0l43.22,43.22-51.63,51.63-38.45-38.45-227.24,227.24,227.48,227.48,106.92-106.92h.02Z"/>
    <path class="st2" d="M432.04,311.72l-51.74-51.74,111.9-111.9c26.23-26.23,68.75-26.24,95-.04l236.7,236.29c26.29,26.24,26.3,68.81.04,95.08l-236.54,236.54c-26.24,26.24-68.79,26.24-95.03,0l-43.22-43.22,51.63-51.63,38.45,38.45,227.24-227.24-227.48-227.48-106.92,106.92h-.02Z"/>
  </g>
  <polygon class="st0" points="648.51 331.3 553.78 487.84 467.02 331.3 648.51 331.3"/>
  <polygon class="st1" points="413.66 331.3 525.94 533.87 491.63 590.55 432.04 483.65 368.71 588.3 226.25 331.3 293.9 331.62 380.84 488.25 409.21 440.97 347.93 331.3 413.66 331.3"/>
</svg>